<?xml version="1.0" encoding="UTF-8"?>
<svg id="_圖層_2" data-name="圖層 2" xmlns="http://www.w3.org/2000/svg" viewBox="0 0 86.58 251.99">
  <defs>
    <style>
      .cls-1, .cls-2 {
        fill: #2eebc6;
      }

      .cls-2 {
        stroke: #d0a63e;
        stroke-linecap: round;
        stroke-miterlimit: 10;
        stroke-width: 2px;
      }
    </style>
  </defs>
  <g id="_對話框_功能框" data-name="對話框 功能框">
    <g id="_功能頁裝飾01" data-name="功能頁裝飾01">
      <g>
        <polygon class="cls-1" points="5.48 60.39 11.68 73.7 22.78 80.37 22.78 120.33 5.48 140.31 5.48 60.39"/>
        <line class="cls-2" x1="5.48" y1="61.82" x2="5.48" y2="250.99"/>
      </g>
      <g>
        <path class="cls-1" d="M66.52,67.22c-.14-.23.69-.77.68-1.09-.09-1.97-1.13-.56-1.25-.02-.27,1.29.94,2.26-.47,3.82-9.67,10.69-31.39,8.68-42.36.41-10.39-7.84-18.04-28.62-10.56-40.01,1.17-1.79,11.25-11.93,13.2-13.3,4.56-3.23,8.63-3.44,13.45-5.11.78-.27.75-1.92,1.59-2.11,23.94-5.44,43.12,23.73,34.77,46.02-.64,1.71-7.41,14.16-9.05,11.38ZM67.98,26.09c-2-1.27-4.52-6.14-9.53-8.76-20-10.48-44.23,2.57-44.94,25.11-.05,1.55,1.3,14.75,1.62,16,.26,1.02,3.54,5.82,4.43,6.65,1.55,1.44,11.78,5.78,14.35,6.63,24.07,7.9,44.12-12.2,38.72-36.53-.5-2.27-2.06-4.19-2.42-6.24-.15-.87.87-2.5.75-2.56-.43-.22-1.98.35-2.98-.28Z"/>
        <path class="cls-1" d="M35.07,87.11C11.15,83.88-2.53,58.17.39,35.84c.31-2.37,5.97-16.86,7.08-17.23,6.15-2.08-.73,6.84-1.41,8.55-10.06,25.3,3.94,53.92,31.53,57.44,4.08.52,8.14-.17,11.85.31,2.01.26,1.78-.38,1.64,2.21-5.06-.48-11.1.66-16.01,0Z"/>
        <path class="cls-1" d="M86.4,48.45c-1.44,1.68-2.01-.01-2.21-1.63-.34-2.75.29-5.82-.11-8.74C81.05,16,62.06,2.77,40.54,3.12c-2.1.03-8.45,2.89-8.22-.49,7.65-4.28,17.44-2.63,25.33.03,14.11,4.77,26.8,19.34,28.63,34.31.21,1.71.48,11.04.11,11.48Z"/>
        <path class="cls-1" d="M84.19,58.4c.35.35-3.54,9.91-5.51,7.72-.79-.88,3.67-9.58,5.51-7.72Z"/>
        <path class="cls-1" d="M74.25,72.76c1.48,1.51-6.87,9.23-6.6,4.97.03-.41,5.51-6.07,6.6-4.97Z"/>
        <path class="cls-1" d="M27.76,6.34c-.16.25-5.17,2.56-5.37,2.35-3.06-3.37,9.17-8.28,5.37-2.35Z"/>
        <path class="cls-1" d="M19.07,11.98c-.11.15-2.29,1.03-3.34,1.63-1.52.87-1.07,2.9-3.26.05.96-3.89,8.39-4.14,6.6-1.68Z"/>
        <path class="cls-1" d="M56.6,84.9c-.89-2.61,5.48-5.36,6.6-2.76l-6.6,2.76Z"/>
        <g>
          <path class="cls-1" d="M38.38,47.1c-.43-.63-1.35-.59-2.03-.92-1.42-.68-5.25-2.93-6.3-3.96-2.18-2.16-2.74-7.26-3.61-10.18-.37-1.24-.96-2.72-1.44-3.94-.85-2.15-2.59-3.91,1.4-2.91,8.77,2.19,13.27,10.25,15.56,18.41.18.63.8,3.25.79,3.76-.01.98-2.88,5.15-3.64,6.12-1.01,1.3-4.58,5.22-6.08,5.53-1.12.23-2.42-.06-3.62.42-2.26.9-2.85,4.05-4.96,4.47-1.07.21-1.12-.51-1.03-1.38.28-2.85,4.8-3.03,4.52-6.39-.07-.87-.83-1.85-.83-2.88,0-1.1.75-3.39,1.73-3.99,1.1-.68,5.38-2.15,6.59-2.15h2.94ZM28.12,27.25c-.37-.96-1.24-1.12-2.19-1.01.58.65,1.27,1.17,2.19,1.01ZM30.76,28.31c-.38-.43-1.23-.65-1.8-.56-.33.28,1.91,1.27,2.02,1.18.03-.23-.08-.45-.22-.62ZM32.5,33.64c.02-2.14-.84-3.4-2.8-4.18-1.73-.69-1.62-.08-1.15,1.49.61,2.05,1.86,2.7,3.95,2.69ZM33.84,31.62c.42-.44-1.51-2.21-1.68-2.02-.2.52,1.3,2.42,1.68,2.02ZM33.67,33.22v3.2c0,1.14,3.53,5.47,4.46,6.48.34.37,1.81,1.94,2.11,2.1.17.09.32.11.5.08,0-.14.01-.28,0-.42-.04-1.98-3.48-9.11-4.97-10.51-.48-.45-1.18-.8-1.76-1.11l-.34.18ZM32.62,37.3c.31-.47.35-1.94-.13-2.23-.27-.16-.98-.16-1.38-.3-.71-.26-1.46-.97-2.24-.47-.68,2.77,1.28,4.1,3.76,3ZM40.74,46.26c-1.25-.72-2.39-1.72-3.37-2.77-1.08-1.16-2.63-3.7-3.71-4.54-1.48-1.15-2,.21-3.52-.26.5,1.87,2.43,3.73,3.98,4.85,1.17.85,4.52,2.69,5.88,2.87.18.02.77.16.74-.15ZM38.55,48.27h-2.44c-.27,0-2.76.56-3.01.69-.47.25-2.75,2.09-2.02,2.67,1.76-.36,3.45-1.02,5.06-1.82.79-.4,1.85-.89,2.41-1.54ZM38.89,49.79l-6.65,2.68c-.15.2.27.65.28,1.09,0,.78-.72,2.08-1.22,2.67-.23.27-2.09,1.77-1.82,2.13.95.43,1.29-.62,2.36-.24.23-.17.14-.86.29-1.23s1.88-2.74,2.23-3.15c1.33-1.54,3.3-2.33,4.54-3.95ZM29.97,50.8c-.72.14-1.64.25-1.68,1.18.66-.26,1.68-.25,1.68-1.18ZM28.62,54.16l1.18-1.68c-.12-.12-2.77,1.34-1.18,1.68ZM31.65,53.15c-.21-.23-2.31,1.59-2.5,1.95-.38.73-.37,2.29.66,1.5.38-.29,2.06-3.21,1.84-3.46ZM36.19,53.49c-.17-.19-.79.53-.93.67-.9.93-1.71,2.12-2.44,3.2,2.07-.33,3.01-1.95,3.36-3.87Z"/>
          <path class="cls-1" d="M47.3,47.1h2.94c1.3,0,5.41,1.44,6.6,2.15,1.44.87,1.95,3.76,1.52,5.29-.14.5-.59,1.04-.61,1.57-.15,3.79,5.35,3.6,4.51,7.62-.34.19-.61.2-.99.13-2.14-.41-2.67-3.32-4.76-4.34-1.27-.62-2.8-.24-3.99-.55-1.63-.43-5.21-4.55-6.29-5.99-.71-.95-3.23-4.64-3.27-5.61-.01-.34.59-2.96.73-3.46,2.25-8.23,6.75-16.5,15.6-18.71.48-.12,2.12-.55,2.41-.13.31,1.09-.63,2.06-1.02,3.04-.46,1.16-1.03,2.65-1.39,3.83-.91,3.01-1.43,8.18-3.74,10.39-1.07,1.01-4.39,2.96-5.78,3.64-.86.42-1.86.52-2.47,1.15ZM59.74,26.24c-1.06-.16-1.64.12-2.19,1.01.92.16,1.61-.36,2.19-1.01ZM56.88,28.09c-.39-.98-2.49.34-2.02.84l2.02-.84ZM53.18,33.64c2.64.29,4.63-1.92,4.05-4.47-2.34.26-4.19,1.97-4.05,4.47ZM51.84,31.62c.4.4,1.87-1.51,1.68-2.02-.45.05-2.05,1.65-1.68,2.02ZM47.24,43.34c1.12-1.2,3.94-4.63,4.46-6.05.47-1.29.76-3.1.05-4.32-1.84.8-2.86,2.41-3.81,4.09-.54.95-3.52,7.48-3,8.02.25.02.51-.03.72-.16.09-.06,1.38-1.37,1.57-1.58ZM56.89,34.14c-.82-.17-1.35.33-2.06.55-1.11.35-1.89-.04-1.98,1.39-.11,1.53,1.12,1.77,2.4,1.55,1.86-.31,1.69-2,1.64-3.49ZM55.54,38.69c-.82.48-1.69-.36-2.42-.29-1.23.12-3.61,3.79-4.56,4.83-1.07,1.17-2.31,2.11-3.45,3.19.88.09,1.69-.31,2.47-.64,3.05-1.29,6.89-3.84,7.96-7.09ZM47.13,48.27c1.49,1.14,3.68,2.29,5.46,2.87.74.24,2.86.96,2.02-.33-.95-1.45-3.35-2.53-5.03-2.53h-2.44ZM54.59,56.46c-.55-.65-1.42-2.04-1.41-2.89,0-.41.44-.85.27-1.09l-6.66-2.68c1.27,1.6,3.19,2.42,4.54,3.95,1.02,1.16,2.23,2.88,2.52,4.38.19.14.61-.14.92-.1.37.05.49.48.84.5,1.7.1-.8-1.8-1.03-2.07ZM57.56,52.14c-.14-.84-.89-1.25-1.68-1.34l.16.76,1.52.59ZM57.52,53.36c-.13-.23-1.32-.77-1.64-.88-.22.24,1.26,1.44,1.43,1.68.39.16.29-.66.21-.8ZM56.55,57.02c.8-1.89-1.03-3.16-2.52-3.87-.16.17,1.67,3.94,2.52,3.87ZM52.24,56.45c-.8-1.12-1.69-2.25-2.76-3.13.26,1.87,1.33,3.86,3.36,3.95-.1-.37-.44-.6-.6-.83Z"/>
        </g>
      </g>
    </g>
  </g>
</svg>