<?xml version="1.0" encoding="UTF-8"?>
<svg id="_圖層_2" data-name="圖層 2" xmlns="http://www.w3.org/2000/svg" viewBox="0 0 86.58 251.99">
  <defs>
    <style>
      .cls-1, .cls-2 {
        fill: #2eebc6;
      }

      .cls-2 {
        stroke: #d0a63e;
        stroke-linecap: round;
        stroke-miterlimit: 10;
        stroke-width: 2px;
      }
    </style>
  </defs>
  <g id="_對話框_功能框" data-name="對話框 功能框">
    <g id="_功能頁裝飾01" data-name="功能頁裝飾01">
      <g>
        <polygon class="cls-1" points="5.48 60.39 11.68 73.7 22.78 80.37 22.78 120.33 5.48 140.31 5.48 60.39"/>
        <line class="cls-2" x1="5.48" y1="61.82" x2="5.48" y2="250.99"/>
      </g>
      <g>
        <path class="cls-1" d="M66.52,67.22c-.14-.23.69-.77.68-1.09-.09-1.97-1.13-.56-1.25-.02-.27,1.29.94,2.26-.47,3.82-9.67,10.69-31.39,8.68-42.36.41-10.39-7.84-18.04-28.62-10.56-40.01,1.17-1.79,11.25-11.93,13.2-13.3,4.56-3.23,8.63-3.44,13.45-5.11.78-.27.75-1.92,1.59-2.11,23.94-5.44,43.12,23.73,34.77,46.02-.64,1.71-7.41,14.16-9.05,11.38ZM67.98,26.09c-2-1.27-4.52-6.14-9.53-8.76-20-10.48-44.23,2.57-44.94,25.11-.05,1.55,1.3,14.75,1.62,16,.26,1.02,3.54,5.82,4.43,6.65,1.55,1.44,11.78,5.78,14.35,6.63,24.07,7.9,44.12-12.2,38.72-36.53-.5-2.27-2.06-4.19-2.42-6.24-.15-.87.87-2.5.75-2.56-.43-.22-1.98.35-2.98-.28Z"/>
        <path class="cls-1" d="M35.07,87.11C11.15,83.88-2.53,58.17.39,35.84c.31-2.37,5.97-16.86,7.08-17.23,6.15-2.08-.73,6.84-1.41,8.55-10.06,25.3,3.94,53.92,31.53,57.44,4.08.52,8.14-.17,11.85.31,2.01.26,1.78-.38,1.64,2.21-5.06-.48-11.1.66-16.01,0Z"/>
        <path class="cls-1" d="M86.4,48.45c-1.44,1.68-2.01-.01-2.21-1.63-.34-2.75.29-5.82-.11-8.74C81.05,16,62.06,2.77,40.54,3.12c-2.1.03-8.45,2.89-8.22-.49,7.65-4.28,17.44-2.63,25.33.03,14.11,4.77,26.8,19.34,28.63,34.31.21,1.71.48,11.04.11,11.48Z"/>
        <path class="cls-1" d="M84.19,58.4c.35.35-3.54,9.91-5.51,7.72-.79-.88,3.67-9.58,5.51-7.72Z"/>
        <path class="cls-1" d="M74.25,72.76c1.48,1.51-6.87,9.23-6.6,4.97.03-.41,5.51-6.07,6.6-4.97Z"/>
        <path class="cls-1" d="M27.76,6.34c-.16.25-5.17,2.56-5.37,2.35-3.06-3.37,9.17-8.28,5.37-2.35Z"/>
        <path class="cls-1" d="M19.07,11.98c-.11.15-2.29,1.03-3.34,1.63-1.52.87-1.07,2.9-3.26.05.96-3.89,8.39-4.14,6.6-1.68Z"/>
        <path class="cls-1" d="M56.6,84.9c-.89-2.61,5.48-5.36,6.6-2.76l-6.6,2.76Z"/>
        <path class="cls-1" d="M42.9,40.79c4.2-1.29,4.86,6.61,7.58,8.82,5.6,4.53,23.97,3.47,6.05,15.9-7.1,4.92-15.63,5.33-23.17,1.23-1.9-1.03-9.48-7.57-9.8-9.04-.98-4.47,11.38-6.16,13.76-8.09s3.49-8.18,5.57-8.82Z"/>
        <path class="cls-1" d="M50.64,17.6c3.35-1.1,10.96,6.5,11.47,9.35.68,3.79-4.18,16.06-7.31,17.02-2.46.76-6.57-3.7-7.01-6.03-.72-3.77.3-13.59,1.11-17.62.25-1.24.34-2.25,1.74-2.71Z"/>
        <path class="cls-1" d="M34.18,17.7c1.94-.58,3.87-.44,4.56,1.67,1.71,5.21,3.5,24.73-4.79,24.73-3.19,0-8.33-11.83-8.31-15,.02-3.32,5.78-10.58,8.54-11.4Z"/>
        <path class="cls-1" d="M20.72,33.01c1.04,0,12.31,15.55,6.46,17.5-13.7,4.57-10.94-17.51-6.46-17.5Z"/>
        <path class="cls-1" d="M67.08,33.01c4.48,0,7.25,22.07-6.46,17.5-5.85-1.95,5.41-17.5,6.46-17.5Z"/>
      </g>
    </g>
  </g>
</svg>