<?xml version="1.0" encoding="UTF-8"?>
<svg id="_圖層_2" data-name="圖層 2" xmlns="http://www.w3.org/2000/svg" viewBox="0 0 122.79 80.79">
  <defs>
    <style>
      .cls-1 {
        fill: #fff;
      }

      .cls-1, .cls-2, .cls-3 {
        font-family: WD-XLLubrifontTC-Regular-B5pc-H, 'WD-XL Lubrifont TC';
        font-size: 38.79px;
        letter-spacing: -.02em;
      }

      .cls-4 {
        fill: #2eebc6;
      }

      .cls-2 {
        stroke: #fff;
        stroke-width: 7px;
      }

      .cls-2, .cls-5, .cls-3 {
        fill: none;
        stroke-linecap: round;
      }

      .cls-2, .cls-3 {
        stroke-linejoin: round;
      }

      .cls-5 {
        stroke: #2eebc6;
        stroke-miterlimit: 10;
        stroke-width: .5px;
      }

      .cls-3 {
        stroke: #065754;
        stroke-width: 6px;
      }
    </style>
  </defs>
  <g id="_圖層_1-2" data-name="圖層 1">
    <g>
      <line class="cls-5" x1="4" y1="54.97" x2="97.32" y2="54.97"/>
      <g>
        <text class="cls-2" transform="translate(3.5 37.64)"><tspan x="0" y="0">城垣尋憶</tspan></text>
        <text class="cls-3" transform="translate(3.5 37.64)"><tspan x="0" y="0">城垣尋憶</tspan></text>
        <text class="cls-1" transform="translate(3.5 37.64)"><tspan x="0" y="0">城垣尋憶</tspan></text>
      </g>
      <g>
        <path class="cls-4" d="M114.91,74.73c-.04-.07.21-.23.2-.33-.03-.59-.34-.17-.38,0-.08.39.28.68-.14,1.15-2.91,3.22-9.45,2.61-12.75.12-3.13-2.36-5.43-8.61-3.18-12.05.35-.54,3.39-3.59,3.97-4.01,1.37-.97,2.6-1.03,4.05-1.54.24-.08.23-.58.48-.64,7.21-1.64,12.98,7.15,10.47,13.86-.19.52-2.23,4.26-2.72,3.43ZM115.35,62.35c-.6-.38-1.36-1.85-2.87-2.64-6.02-3.16-13.32.77-13.53,7.56-.01.47.39,4.44.49,4.82.08.31,1.07,1.75,1.33,2,.47.43,3.55,1.74,4.32,1.99,7.25,2.38,13.28-3.67,11.66-11-.15-.68-.62-1.26-.73-1.88-.05-.26.26-.75.23-.77-.13-.07-.6.11-.9-.08Z"/>
        <path class="cls-4" d="M105.44,80.72c-7.2-.97-11.32-8.71-10.44-15.44.09-.71,1.8-5.07,2.13-5.19,1.85-.63-.22,2.06-.42,2.57-3.03,7.62,1.19,16.23,9.49,17.29,1.23.16,2.45-.05,3.57.09.61.08.54-.11.49.67-1.52-.14-3.34.2-4.82,0Z"/>
        <path class="cls-4" d="M120.9,69.08c-.43.51-.6,0-.66-.49-.1-.83.09-1.75-.03-2.63-.91-6.65-6.63-10.63-13.11-10.52-.63.01-2.55.87-2.47-.15,2.3-1.29,5.25-.79,7.63,0,4.25,1.44,8.07,5.82,8.62,10.33.06.51.15,3.32.03,3.46Z"/>
        <path class="cls-4" d="M120.23,72.08c.1.11-1.07,2.98-1.66,2.32-.24-.27,1.11-2.89,1.66-2.32Z"/>
        <path class="cls-4" d="M117.24,76.4c.45.45-2.07,2.78-1.99,1.49,0-.12,1.66-1.83,1.99-1.49Z"/>
        <path class="cls-4" d="M103.24,56.41c-.05.07-1.56.77-1.62.71-.92-1.01,2.76-2.49,1.62-.71Z"/>
        <path class="cls-4" d="M100.62,58.1s-.69.31-1.01.49c-.46.26-.32.87-.98.01.29-1.17,2.52-1.25,1.99-.5Z"/>
        <path class="cls-4" d="M111.93,80.06c-.27-.79,1.65-1.61,1.99-.83l-1.99.83Z"/>
        <path class="cls-4" d="M107.8,66.78c1.26-.39,1.46,1.99,2.28,2.65,1.69,1.36,7.22,1.05,1.82,4.79-2.14,1.48-4.7,1.6-6.97.37-.57-.31-2.85-2.28-2.95-2.72-.29-1.35,3.43-1.85,4.14-2.44s1.05-2.46,1.68-2.65Z"/>
        <path class="cls-4" d="M110.13,59.8c1.01-.33,3.3,1.96,3.45,2.81.2,1.14-1.26,4.83-2.2,5.12-.74.23-1.98-1.11-2.11-1.82-.22-1.13.09-4.09.33-5.31.08-.37.1-.68.53-.82Z"/>
        <path class="cls-4" d="M105.18,59.83c.59-.18,1.17-.13,1.37.5.51,1.57,1.05,7.44-1.44,7.44-.96,0-2.51-3.56-2.5-4.51s1.74-3.18,2.57-3.43Z"/>
        <path class="cls-4" d="M101.12,64.43c.31,0,3.71,4.68,1.94,5.27-4.13,1.38-3.29-5.27-1.94-5.27Z"/>
        <path class="cls-4" d="M115.08,64.43c1.35,0,2.18,6.65-1.94,5.27-1.76-.59,1.63-5.27,1.94-5.27Z"/>
      </g>
    </g>
  </g>
</svg>